# xmcd
#
# Track frame offsets:
#   150
#   17408
#   34855
#   52763
#   67054
#   82053
#   104172
#   122544
#   137633
#   155494
#   173613
#   195247
#   213975
#
# Disc length: 3129 seconds
#
# Revision: 0
# Processed by: cddbd v1.5.2PL0 Copyright (c) Steve Scherf et al.
# Submitted via: GXTranscoder 2.0.1939
#
DISCID=a90c370d
DTITLE=city records - compilation
DYEAR=1900
DGENRE=narodna
TTITLE0=Zlatko Vujic and Goca Trzan - jos jedan krug
TTITLE1=Energija - u pesku vremena
TTITLE2=Funky G - za moj bol
TTITLE3=Prslook band - objektivne lazi
TTITLE4=DLZ - bez tebe
TTITLE5=Daniel - jos sanjam
TTITLE6=Gloria - sad si moj
TTITLE7=O.K. band - svirajte mi njene pesme
TTITLE8=Moby Dick - reci da li places sada
TTITLE9=Duck - otac
TTITLE10=Zeljko Joksimovic - habanera
TTITLE11=Romana - lazem
TTITLE12=Luna - nebo zna
EXTD=
EXTT0=
EXTT1=
EXTT2=
EXTT3=
EXTT4=
EXTT5=
EXTT6=
EXTT7=
EXTT8=
EXTT9=
EXTT10=
EXTT11=
EXTT12=
PLAYORDER=
